#!OML:ASF H:\Terrain\Patient Classification 1\Takeo\Monday\TakeoMonday.ASF
:FULLY-SPECIFIED
:DEGREES
614
root 5.00378 17.3956 2.04673 -173.965 79.7691 -170.95
lowerback 11.4058 -3.18515 -2.04745
upperback 6.6379 -4.06068 -3.98259
thorax 0.406211 -1.85639 -2.54231
lowerneck -6.69209 -10.8461 -8.10797
upperneck 6.33467 -14.5088 8.7814
head 4.21274 -7.0044 3.00819
rclavicle 6.99722e-014 2.38542e-014
rhumerus -23.1673 0.361948 -70.6733
rradius 59.8716
rwrist -7.24468
rhand -44.3585 35.0964
rfingers 7.12502
rthumb -17.1663 5.83474
lclavicle 6.99722e-014 2.38542e-014
lhumerus -17.4472 -24.9595 94.3277
lradius 75.3759
lwrist 29.1878
lhand -27.479 27.8008
lfingers 7.12502
lthumb -0.8827 57.7787
rfemur -9.93856 -5.36608 16.3717
rtibia 32.8494
rfoot -18.7611 -8.88699
rtoes 2.27303
lfemur -7.57311 11.2855 -8.51242
ltibia 32.6928
lfoot -15.463 17.4544
ltoes -4.8073
615
root 4.93282 17.3727 2.03817 -152.436 78.7369 -150.305
lowerback 10.919 -3.19747 1.90465
upperback 6.15366 -3.79868 -2.72269
thorax -0.0052326 -1.69401 -3.48035
lowerneck -6.49186 -10.865 -8.48727
upperneck 6.25995 -14.5471 9.20309
head 4.22091 -7.01985 3.19623
rclavicle 3.57812e-015 2.70347e-014
rhumerus -22.5078 1.35863 -72.0623
rradius 59.5858
rwrist -7.11049
rhand -44.8213 35.3462
rfingers 7.12502
rthumb -17.6117 6.12388
lclavicle 3.57812e-015 2.70347e-014
lhumerus -17.1427 -25.2163 94.6123
lradius 75.1691
lwrist 29.2487
lhand -27.2063 27.1083
lfingers 7.12502
lthumb -0.619369 57.0871
rfemur -11.5762 -4.34447 21.0911
rtibia 32.5548
rfoot -18.2205 -10.4166
rtoes 2.04598
lfemur -9.72551 12.0717 -4.26711
ltibia 33.5469
lfoot -15.0685 17.0228
ltoes -7.07611
616
root 4.89253 17.3684 2.03997 -164.369 78.9566 -162.069
lowerback 11.5751 -2.92909 -0.482164
upperback 6.23325 -3.63454 -3.2027
thorax -0.149246 -1.64069 -2.63251
lowerneck -6.24573 -11.0878 -8.4884
upperneck 6.05334 -14.876 9.46758
head 4.16789 -7.18041 3.26244
rclavicle -8.34896e-015 2.8625e-014
rhumerus -22.0719 1.8775 -73.4005
rradius 59.5401
rwrist -7.25316
rhand -45.0801 35.6932
rfingers 7.12502
rthumb -17.8607 6.49339
lclavicle -8.34896e-015 2.8625e-014
lhumerus -16.7746 -26.25 94.671
lradius 75.0576
lwrist 29.5657
lhand -27.2116 26.8885
lfingers 7.12502
lthumb -0.624411 56.8673
rfemur -11.4877 -4.94297 18.7246
rtibia 32.5564
rfoot -17.2161 -11.5355
rtoes -1.67666
lfemur -9.94049 11.6865 -6.7827
ltibia 34.008
lfoot -15.2812 16.7616
ltoes -8.01813
617
root 4.86706 17.3635 1.99967 -153.938 78.0846 -151.919
lowerback 11.0373 -2.81445 2.25545
upperback 6.22554 -3.24523 -2.67046
thorax 0.0324495 -1.40326 -3.68493
lowerneck -6.13432 -11.3659 -7.88924
upperneck 5.71445 -15.2556 9.11161
head 4.00571 -7.37829 3.05365
rclavicle -5.56597e-015 -2.06736e-014
rhumerus -21.4918 2.30327 -74.7109
rradius 59.4033
rwrist -7.38403
rhand -45.2804 35.9281
rfingers 7.12502
rthumb -18.0535 6.74595
lclavicle -5.56597e-015 -2.06736e-014
lhumerus -16.2456 -27.201 94.6554
lradius 74.9466
lwrist 29.7835
lhand -27.1751 27.0362
lfingers 7.12502
lthumb -0.589206 57.0151
rfemur -11.8118 -4.45697 21.0382
rtibia 32.3372
rfoot -17.5053 -11.6278
rtoes 1.49613
lfemur -11.0078 12.6236 -4.434
ltibia 34.8744
lfoot -15.4544 15.8771
ltoes -8.13712
618
root 4.84656 17.3713 1.96517 -165.957 78.2779 -163.449
lowerback 11.7251 -2.76639 0.12277
upperback 6.48903 -3.33313 -3.2088
thorax 0.01559 -1.4641 -3.0153
lowerneck -5.95231 -11.5847 -5.86121
upperneck 4.99968 -15.5233 7.21931
head 3.46939 -7.56415 2.23564
rclavicle 1.63003e-014 7.95139e-015
rhumerus -20.6609 3.33815 -76.1118
rradius 59.1266
rwrist -6.951
rhand -46.3374 35.1996
rfingers 7.12502
rthumb -19.0702 6.11447
lclavicle 1.63003e-014 7.95139e-015
lhumerus -15.6909 -27.4438 94.6374
lradius 74.7939
lwrist 29.5949
lhand -26.9517 27.6231
lfingers 7.12502
lthumb -0.373414 57.6025
rfemur -11.1537 -5.06268 18.2857
rtibia 32.6178
rfoot -17.5099 -11.7887
rtoes 0.642406
lfemur -10.3901 12.3587 -7.06221
ltibia 34.8291
lfoot -15.528 15.7363
ltoes -8.2955
619
root 4.80332 17.3591 1.94867 -163.81 77.6945 -161.37
lowerback 11.993 -2.8235 0.507349
upperback 6.4591 -3.37413 -2.81538
thorax -0.161857 -1.48539 -2.80482
lowerneck -5.9554 -11.4988 -7.56292
upperneck 5.19157 -15.416 8.87896
head 3.78703 -7.47429 2.95144
rclavicle 1.51076e-014 -3.81667e-014
rhumerus -19.7784 4.67401 -77.3825
rradius 58.9159
rwrist -6.63074
rhand -47.0932 34.8079
rfingers 7.12502
rthumb -19.7969 5.79609
lclavicle 1.51076e-014 -3.81667e-014
lhumerus -15.068 -27.4248 94.6185
lradius 74.661
lwrist 29.383
lhand -26.6788 28.3046
lfingers 7.12502
lthumb -0.109836 58.2843
rfemur -11.3415 -4.99765 18.9521
rtibia 32.3761
rfoot -17.2608 -12.5908
rtoes 0.334337
lfemur -11.1486 12.2083 -6.55215
ltibia 35.3799
lfoot -15.3194 15.4776
ltoes -7.90295
620
root 4.7784 17.3475 1.92171 -164.281 77.4958 -161.761
lowerback 12.2178 -2.7107 0.480485
upperback 6.54134 -3.21563 -2.66735
thorax -0.17866 -1.40429 -2.64877
lowerneck -5.84477 -11.5773 -8.27917
upperneck 4.90543 -15.5206 9.71155
head 3.81533 -7.51428 3.29874
rclavicle -4.77083e-015 -1.59028e-015
rhumerus -18.9472 5.69283 -78.481
rradius 58.5956
rwrist -6.91065
rhand -46.4682 35.518
rfingers 7.12502
rthumb -19.196 6.44536
lclavicle -4.77083e-015 -1.59028e-015
lhumerus -14.4625 -27.7505 94.5529
lradius 74.5313
lwrist 29.2921
lhand -26.2777 28.5071
lfingers 7.12502
lthumb 0.277549 58.4867
rfemur -11.3214 -4.95147 18.8031
rtibia 32.5282
rfoot -17.4633 -12.7062
rtoes 1.35205
lfemur -11.2954 12.1008 -6.70557
ltibia 35.5416
lfoot -15.1733 15.4399
ltoes -7.88836
621
root 4.75139 17.3104 1.88711 -164.961 77.2889 -162.501
lowerback 12.3288 -2.61473 0.633126
upperback 6.56465 -3.06765 -2.64343
thorax -0.21305 -1.32497 -2.72482
lowerneck -5.74482 -11.7405 -8.59789
upperneck 4.68587 -15.7443 10.1663
head 3.81595 -7.6194 3.46708
rclavicle 4.77083e-015 3.02153e-014
rhumerus -18.2267 6.77925 -79.5909
rradius 58.2485
rwrist -7.32265
rhand -45.8388 35.7181
rfingers 7.12502
rthumb -18.5906 6.58645
lclavicle 4.77083e-015 3.02153e-014
lhumerus -13.9941 -28.2327 94.3618
lradius 74.4133
lwrist 29.3137
lhand -26.3116 28.3834
lfingers 7.12502
lthumb 0.244834 58.363
rfemur -11.9414 -6.33262 18.954
rtibia 32.5106
rfoot -13.6173 -15.5034
rtoes -17.6801
lfemur -11.7599 12.3784 -6.9681
ltibia 36.0282
lfoot -15.1425 15.1937
ltoes -9.14313
622
root 4.7197 17.3347 1.85355 -164.961 76.8281 -162.657
lowerback 12.4165 -2.65065 0.831672
upperback 6.53624 -3.09432 -2.42147
thorax -0.290001 -1.33906 -2.59791
lowerneck -5.62502 -11.867 -9.12943
upperneck 4.5503 -15.8938 10.4321
head 3.83371 -7.69879 3.61552
rclavicle 1.07344e-014 -1.74931e-014
rhumerus -17.4388 8.2427 -80.5195
rradius 57.9626
rwrist -7.57828
rhand -45.5289 35.5039
rfingers 7.12502
rthumb -18.2925 6.34401
lclavicle 1.07344e-014 -1.74931e-014
lhumerus -13.408 -28.1601 94.4062
lradius 74.1987
lwrist 29.2135
lhand -26.5588 28.1029
lfingers 7.12502
lthumb 0.00604117 58.0827
rfemur -11.8035 -5.44866 18.5688
rtibia 32.7624
rfoot -17.3261 -13.3576
rtoes 1.62957
lfemur -12.2904 12.718 -7.0629
ltibia 36.2636
lfoot -14.8557 14.7157
ltoes -9.78734
